<svg xmlns="http://www.w3.org/2000/svg" width="1024" height="1024" viewBox="0 0 1024 1024"><path fill="#1c4c8a" d="M541.6 904.97c-11.8.94-43.01 1.14-55.1.34-30.46-2.01-67.34-9.52-97.5-19.84-37.86-12.97-70.98-30.02-104.36-53.73-53.01-37.65-100.81-94.58-127.36-151.68-23.99-51.6-35.63-101.08-36.96-157.12-.63-26.38.42-45.5 3.69-67.09 13.54-89.44 59.71-174.82 126.38-233.71 63.26-55.87 132.41-87.46 214.23-97.86 17.53-2.23 72.78-2.51 89.88-.46 38.81 4.67 74.13 13.55 105 26.39a397.6 397.6 0 0 1 232.59 268.61c8.41 32.77 11.41 58.23 11.33 96.18-.06 32.07-1.71 48.37-7.89 78.16-15.04 72.53-50.52 138.82-103.25 192.92-66.84 68.56-157.14 111.39-250.68 118.89M492 880.42c7.15.84 47.91-.41 59.54-1.82 82.66-10.02 159.18-47.35 218.5-106.58 56.01-55.93 92.3-126.96 104.42-204.38 15.25-97.42-11.87-199.38-74.39-279.64-50.29-64.57-121.6-111.39-198.57-130.39-28.3-6.99-48.59-9.6-80.18-10.33-40.63-.93-73.45 3.03-110.16 13.32C286.5 195.52 186.55 300.29 155.11 429c-6.89 28.24-9.62 52.26-9.58 84.5.03 27.06.85 37.06 5.02 61.34 15.61 90.81 67.3 174.85 142.11 231.03 54.4 40.85 120.45 67.03 184.34 73.05 6.33.6 13.08 1.27 15 1.5"/><path fill="#cf1381" d="M522 690.49V783h-33V529h30v2.5c0 1.38.11 2.5.25 2.5.14-.01 2.46-1.13 5.17-2.5s5.41-2.51 6-2.51c.59-.01 2.12-1.62 3.39-3.58 3.44-5.3 9.07-7.5 17.34-6.74l6.65.6 5.26-4.89c5.95-5.53 10.94-12.76 10.94-15.85 0-3.55-2.5-6.02-20.79-20.56-24.9-19.8-27.5-22.15-32.05-28.96-6.21-9.31-9.11-27.03-9.17-56.01v-2.81c0-8.15 0-11.79-1.46-12.53-1.18-.6-3.3.67-7.12 2.95l-1.64.97c-14.61 8.64-26.05 12.41-37.67 12.41l-7.39.01 5.24 5.54c3.63 3.84 4.95 5.91 4.3 6.75-.87 1.14-2.38 21.77-3.86 52.7l-.64 13.5-3.76 3.75-3.75 3.76h6.26c2.18 0 3.63-.01 4.59.68 1.88 1.34 1.89 5.33 1.9 17.19v1.38L467 514h-33v-2.8c0-1.95-1.22-3.99-4.02-6.72-4.71-4.59-6.37-9.62-5.4-16.28 1.31-9.01 5.44-14.55 13.49-18.11 7.67-3.4 8.33-4.69 7.61-14.88-.64-9-4.91-34.13-6.78-39.94-.68-2.11-5.44-7.42-13.67-15.25-6.94-6.61-12.91-12.02-13.25-12.02s-4.05 6.95-8.25 15.45c-5.9 11.94-8.27 15.78-10.46 16.91-2.8 1.45-34.5 12.81-61.94 22.2l-14.16 4.84 1.79 3.55c3.43 6.78 4.04 13.48 4.04 44.1V525h-36v-24l.01-5.97c.05-12.65.07-18.09-2.6-20.4-2.02-1.74-5.57-1.71-11.79-1.65l-3.9.02c-11.3 0-14.74.32-16.5 1.56l-2.22 1.55v85.45c0 84.11.03 85.47 2 87.44 1.82 1.82 3.33 2 16.94 2 14.31 0 15.01-.09 16.5-2.22 1.34-1.91 1.56-7.04 1.56-35.9 0-29.78-.18-33.74-1.58-34.27-.87-.34-5.15-.61-9.5-.61H268v-35h55v147h-23.56l-1.86-7.24c-1.59-6.15-2.04-6.97-2.97-5.38-3.87 6.52-5.65 8.39-10.11 10.62-4.86 2.43-5.57 2.5-25.5 2.44-19.02-.06-20.93-.23-26.44-2.4-8.78-3.44-14.86-9.93-17.52-18.69-2.06-6.79-2.08-7.93-1.81-109.35l.27-102.5 2.59-5.5c3.5-7.43 6.74-11.04 13.08-14.55l5.33-2.95 20-.32c17.64-.29 20.24-.54 22-2.14 4.39-3.98 10.9-6.37 18.66-6.83 6.66-.4 8.59-.09 14.75 2.32 6.54 2.57 7.42 2.69 11.34 1.51 7.98-2.38 43.39-22.71 49.5-28.4 3.23-3.02 8.96-15.94 12.67-28.6l.17-.6c.68-2.28 1.06-3.6.75-4.72-.45-1.62-2.37-2.83-7-5.96-3.99-2.69-6.6-3.63-11.5-4.15-16.01-1.69-22.33-4.74-25.49-12.31-3.54-8.49-.65-14.86 9.31-20.47 2.94-1.66 5.34-3.44 5.34-3.96s-.72-2.05-1.61-3.4c-3.07-4.68.59-10.88 8.96-15.19 7.47-3.84 20.68-4.4 29.09-1.23 7.76 2.92 15.15 10.09 16.08 15.59 1.06 6.27 1.48 7.23 3.48 7.86a4.3 4.3 0 0 1 2.48 2.44c1.82 5.72 13.66 5.17 39.23-1.81 26.53-7.26 33.29-8.52 45.79-8.54 19-.04 28.22 3.26 47.4 16.98 4.56 3.26 9.17 3.1 16.97-.59 7.44-3.51 19.25-14.39 25.38-23.37 2.21-3.25 7.14-12.47 10.94-20.5 14.82-31.27 17.04-35.28 23-41.66 8.15-8.71 13.46-10.95 25.81-10.91 8.42.03 10.12.35 15 2.86 15.65 8.03 23.73 27 19.67 46.19-.82 3.89-4.19 14.02-7.49 22.5-8.23 21.17-9.24 24.9-9.89 36.63-1.25 22.41 8.08 41.41 24.25 49.37 8.49 4.18 15.95 4.8 24.18 2.02 7.76-2.63 10.73-2.66 13.28-.11 2.38 2.38 2.56 6.02.49 10.02-2.35 4.54-12.93 7.44-24.38 6.7-31.56-2.06-52.32-26.45-52.53-61.72-.09-14.34 1.64-22.13 9.66-43.5 9.4-25.07 10.19-29.33 7.24-39.27-1.83-6.15-5.38-10.63-10.51-13.25-9.14-4.66-17.46-3.41-25.14 3.78-5.58 5.22-8.94 11.63-16.84 32.2-13.21 34.36-26.31 51.12-48.8 62.45-3.96 1.99-7.19 3.88-7.19 4.2 0 1.39 11.34 20.63 15.43 26.19 6.1 8.28 7.52 8.92 12.48 5.64 3.79-2.5 4.35-2.59 13.77-1.99 8.96.56 10.43.39 16.82-1.98 17.38-6.44 17.62-6.37 23.94 6.75A78 78 0 0 0 652.42 408c3.58 4.12 6.53 7.79 6.55 8.14.07 1.51-3.33 1.73-7.01.46l-3.96-1.37v4.94c0 5.65 1.8 9.74 5.61 12.74 2.49 1.96 3.89 2.09 22.52 2.09H696v39h-26.5c-25.17 0-26.6.1-28.5 2-1.97 1.97-2 3.33-2 86.28 0 74.66.18 84.53 1.56 86.5 1.54 2.2 1.79 2.22 28.5 2.22H696v39h-33.32c-27.41 0-34.26-.28-38.62-1.58-7.11-2.11-13.92-8.53-17.68-16.69l-2.88-6.23v-102c0-96.41.1-102.29 1.84-107.27 4.05-11.62 14.8-20.23 27.18-21.78 3.01-.37 5.48-.88 5.48-1.11s-.67-1.73-1.49-3.31-1.89-6.49-2.38-10.92c-.64-5.75-1.67-9.35-3.59-12.63-4.5-7.68-5.61-7.72-19.77-.7-20.81 10.33-38.06 13.82-46.77 9.47-3.07-1.53-3.48-2.18-3.33-5.25.09-1.92.4-9.58.7-17l.55-13.5-1.53 8c-.84 4.4-3.3 15.13-5.46 23.84S551 428.05 551 429.13c0 3.43 3.68 9.21 9.46 14.87 3.11 3.05 8.61 10.39 12.33 16.46 4.54 7.4 9.87 14.26 16.46 21.18 8.93 9.36 9.75 10.55 9.75 14.13 0 3.53-.96 5-9.63 14.82-5.3 6-11.4 13.23-13.56 16.08l-3.92 5.16 4.4 4.4c8.31 8.32 8.13 6.79 8.51 69.77.24 39.62.01 57.07-.82 61-2.38 11.22-8.92 18.37-19.92 21.78-4.41 1.36-9.34 1.72-23.81 1.71Zm264.56-3.66c-5.06 2.67-5.06 2.67-30.56 2.91-27.47.25-29.25 0-37.05-5.16-5.48-3.62-9.42-9.44-11.4-16.82-1.49-5.57-1.64-12.31-1.36-61.26l.31-55 2.58-5.51c3.15-6.7 7.9-11.62 13.91-14.4 4.13-1.91 6.64-2.12 29.67-2.4 27.64-.34 30.45.03 38 5.07 3.79 2.54 5.6 4.76 8.34 10.22l3.5 6.97v57.03c0 53.18-.13 57.38-1.88 62.41-2.31 6.65-7.41 12.43-14.06 15.94M375 628.15V690h-33V529h30v10.41l3.75-3.62c6.13-5.92 11.61-8.21 19.71-8.25 15.95-.09 25.54 10.83 25.54 29.05v6.23l-7.25 1.2-11.25 1.88c-3.26.55-4.64.24-7.5-1.7-2.97-2.02-4.44-2.32-9.69-2q-1.34.08-2.46.08c-1.78.03-3.16.05-4.23.64-3.69 2.02-3.68 10.77-3.63 49.66zM467 529v161h-33V529Zm274 126c1.77 1.77 3.32 2 13.25 1.98 6.19 0 11.75-.34 12.35-.75 3.17-2.11 3.4-5.33 3.4-47.53l.01-10.9c.06-25.28.08-33.33-3.64-35.82-1.73-1.16-4.29-1.11-8.03-1.03q-1.59.05-3.46.05c-10.31 0-11.12.15-13.43 2.45l-2.45 2.46v43.54c0 42.22.06 43.61 2 45.55m-217.35-.83c1.43 1.58 3.3 1.83 13.45 1.83 11.05 0 11.88-.14 13.34-2.22 1.35-1.93 1.56-7.86 1.54-44.75 0-23.39-.34-43.03-.75-43.63-1.67-2.51-5.59-3.4-14.94-3.4-7.29 0-10.42.4-12.07 1.56l-2.22 1.55v43.62c0 39.18.17 43.8 1.65 45.44"/></svg>